<?xml version="1.0" standalone="no"?>
<!DOCTYPE svg PUBLIC "-//W3C//DTD SVG 20010904//EN"
 "http://www.w3.org/TR/2001/REC-SVG-20010904/DTD/svg10.dtd">
<svg version="1.0" xmlns="http://www.w3.org/2000/svg"
 width="75.000000pt" height="63.000000pt" viewBox="0 0 75.000000 63.000000"
 preserveAspectRatio="xMidYMid meet">
<metadata>
Created by potrace 1.16, written by Peter Selinger 2001-2019
</metadata>
<g transform="translate(0.000000,63.000000) scale(0.100000,-0.100000)"
fill="#000000" stroke="none">
<path d="M47 618 c-61 -47 -26 -138 55 -143 4 0 13 -9 21 -19 16 -22 47 -16
47 10 0 13 -3 14 -14 5 -24 -20 -30 8 -7 33 28 30 27 77 -2 104 -28 26 -47 29
-25 5 23 -27 30 -57 18 -88 -7 -18 -15 -25 -25 -21 -8 3 -14 1 -12 -3 1 -5 -2
-8 -8 -7 -5 0 -9 5 -7 10 2 5 -4 4 -12 -3 -35 -29 -50 75 -16 109 22 22 13 27
-13 8z"/>
<path d="M208 623 c7 -3 12 -23 12 -52 0 -46 21 -91 42 -91 7 0 6 5 -2 15 -7
9 -11 37 -8 75 l3 60 -30 -1 c-16 0 -24 -3 -17 -6z"/>
<path d="M317 622 c6 -4 13 -30 16 -57 l3 -50 2 52 c1 30 7 53 15 56 6 3 -1 6
-18 6 -17 0 -25 -3 -18 -7z"/>
<path d="M407 618 c-29 -23 -39 -66 -22 -97 8 -16 22 -31 30 -35 26 -10 26 -7
5 14 -12 12 -20 33 -20 55 0 22 8 43 20 55 22 22 13 27 -13 8z"/>
<path d="M484 611 c11 -12 18 -36 18 -58 0 -29 -6 -42 -28 -60 -21 -17 -23
-22 -9 -17 64 22 86 91 42 132 -29 27 -46 29 -23 3z"/>
<path d="M568 623 c8 -3 12 -27 12 -68 0 -41 -4 -65 -12 -68 -7 -3 13 -6 45
-6 49 -1 62 3 82 24 14 13 25 36 25 50 0 14 -11 37 -25 50 -20 21 -33 25 -82
24 -32 0 -52 -3 -45 -6z m110 -15 c16 -16 16 -90 0 -106 -7 -7 -25 -12 -40
-12 -28 0 -28 0 -28 65 0 65 0 65 28 65 15 0 33 -5 40 -12z"/>
<path d="M306 495 c-11 -8 -15 -15 -9 -15 6 0 16 7 23 15 16 19 11 19 -14 0z"/>
<path d="M48 384 c17 -8 17 -130 0 -137 -7 -3 20 -6 60 -6 68 -1 72 0 72 22
-1 20 -2 20 -11 5 -6 -12 -22 -18 -44 -18 -32 0 -35 2 -35 30 0 23 5 30 19 30
11 0 22 -6 24 -12 3 -7 6 3 6 22 0 28 -2 32 -10 18 -16 -29 -39 -22 -39 12 0
28 3 30 35 30 27 0 38 -5 45 -22 10 -23 10 -23 7 2 -2 24 -5 25 -72 27 -38 1
-64 0 -57 -3z"/>
<path d="M208 383 c17 -7 17 -129 0 -136 -7 -3 1 -6 17 -6 30 -1 31 1 27 35
-4 33 -2 35 19 32 18 -2 25 -11 29 -33 3 -17 12 -31 22 -33 15 -3 16 1 7 27
-6 17 -15 33 -20 36 -4 3 1 15 12 26 20 20 20 22 3 40 -13 15 -30 19 -73 18
-31 0 -50 -3 -43 -6z m97 -33 c0 -20 -6 -26 -27 -28 -25 -3 -28 0 -28 28 0 28
3 31 28 28 21 -2 27 -8 27 -28z"/>
<path d="M446 374 c-8 -22 -8 -26 3 -20 5 3 14 -8 20 -24 9 -28 8 -30 -15 -30
-21 0 -24 4 -20 23 3 12 -3 2 -15 -23 -11 -24 -25 -48 -32 -52 -8 -5 -4 -8 10
-8 14 0 21 5 18 13 -8 22 11 39 41 35 23 -2 29 -8 28 -25 0 -19 5 -23 30 -23
25 0 28 2 14 13 -8 6 -25 40 -38 75 -23 63 -33 74 -44 46z"/>
<path d="M541 363 c0 -27 1 -27 9 -5 6 12 18 22 30 22 18 0 20 -6 20 -64 0
-42 -4 -66 -12 -69 -7 -3 7 -5 32 -5 25 0 37 2 28 5 -15 4 -18 16 -18 69 0 58
2 64 20 64 12 0 24 -10 30 -22 8 -22 9 -22 9 5 l1 27 -75 0 -75 0 1 -27z"/>
<path d="M18 143 c17 -7 17 -129 -1 -136 -6 -3 14 -6 46 -6 49 -1 62 3 82 24
32 31 32 69 0 100 -20 21 -33 25 -82 24 -32 0 -52 -3 -45 -6z m110 -15 c16
-16 16 -90 0 -106 -7 -7 -25 -12 -40 -12 -28 0 -28 0 -28 65 0 65 0 65 28 65
15 0 33 -5 40 -12z"/>
<path d="M198 144 c17 -8 17 -130 0 -137 -7 -3 20 -6 60 -6 68 -1 72 0 72 22
-1 20 -2 20 -11 5 -6 -12 -22 -18 -44 -18 -32 0 -35 2 -35 30 0 23 5 30 19 30
11 0 22 -6 24 -12 3 -7 6 3 6 22 0 28 -2 32 -10 18 -16 -29 -39 -22 -39 12 0
28 3 30 35 30 27 0 38 -5 45 -22 10 -23 10 -23 7 2 -2 24 -5 25 -72 27 -38 1
-64 0 -57 -3z"/>
<path d="M365 75 c0 -68 2 -75 20 -75 15 0 16 3 7 12 -7 7 -12 37 -11 67 l1
56 18 -40 c11 -22 24 -53 30 -70 l11 -30 14 25 c18 31 19 50 3 27 -11 -15 -16
-10 -36 43 -16 40 -29 60 -40 60 -14 0 -17 -12 -17 -75z"/>
<path d="M499 143 c0 -5 -1 -38 -2 -76 -2 -61 0 -67 18 -67 18 0 20 7 20 75 0
65 -2 75 -17 75 -10 0 -18 -3 -19 -7z"/>
<path d="M570 75 l0 -75 75 0 75 0 0 75 0 75 -75 0 -75 0 0 -75z"/>
<path d="M476 95 c-9 -26 -7 -32 5 -12 6 10 9 21 6 23 -2 3 -7 -2 -11 -11z"/>
</g>
</svg>
